<svg width="24" height="25" viewBox="0 0 24 25" fill="none" xmlns="http://www.w3.org/2000/svg">
<path opacity="0.7" d="M15.402 21.085V14.119H17.735L18.084 11.411H15.402V9.68296C15.402 8.89896 15.62 8.36396 16.744 8.36396H18.178V5.94196C17.4838 5.86831 16.7861 5.83259 16.088 5.83496C14.021 5.83496 12.606 7.09696 12.606 9.41496V11.411H10.268V14.119H12.606V21.085H4C3.73478 21.085 3.48043 20.9796 3.29289 20.7921C3.10536 20.6045 3 20.3502 3 20.085V4.08496C3 3.81974 3.10536 3.56539 3.29289 3.37785C3.48043 3.19032 3.73478 3.08496 4 3.08496H20C20.2652 3.08496 20.5196 3.19032 20.7071 3.37785C20.8946 3.56539 21 3.81974 21 4.08496V20.085C21 20.3502 20.8946 20.6045 20.7071 20.7921C20.5196 20.9796 20.2652 21.085 20 21.085H15.402Z" fill="white"/>
</svg>
