<svg width="24" height="24" viewBox="0 0 24 24" fill="none" xmlns="http://www.w3.org/2000/svg">
<path opacity="0.7" d="M22.1603 5.65605C21.3969 5.99374 20.5873 6.21552 19.7583 6.31405C20.6321 5.79148 21.2861 4.96906 21.5983 4.00005C20.7783 4.48805 19.8793 4.83005 18.9423 5.01505C18.313 4.34163 17.4787 3.89501 16.5693 3.74463C15.6599 3.59425 14.7263 3.74854 13.9136 4.1835C13.1009 4.61846 12.4547 5.30973 12.0755 6.14984C11.6962 6.98995 11.6051 7.93183 11.8163 8.82905C10.1535 8.7457 8.52668 8.31357 7.04163 7.56071C5.55659 6.80785 4.24647 5.7511 3.19634 4.45905C2.82463 5.0975 2.6293 5.82328 2.63034 6.56205C2.63034 8.01205 3.36834 9.29305 4.49034 10.043C3.82635 10.0221 3.17698 9.84283 2.59634 9.52005V9.57205C2.59654 10.5377 2.93071 11.4737 3.54219 12.2211C4.15367 12.9686 5.00483 13.4815 5.95134 13.673C5.33496 13.8401 4.68865 13.8647 4.06134 13.745C4.32821 14.5763 4.84835 15.3032 5.54894 15.8242C6.24952 16.3451 7.09547 16.6338 7.96834 16.65C7.10082 17.3314 6.10752 17.835 5.04522 18.1322C3.98293 18.4294 2.87247 18.5143 1.77734 18.382C3.68904 19.6115 5.91444 20.2642 8.18734 20.262C15.8803 20.262 20.0873 13.889 20.0873 8.36205C20.0873 8.18205 20.0823 8.00005 20.0743 7.82205C20.8932 7.23022 21.5999 6.49707 22.1613 5.65705L22.1603 5.65605Z" fill="white"/>
</svg>
